<mxfile host="app.diagrams.net" modified="2022-03-14T03:39:33.088Z" agent="5.0 (Macintosh; Intel Mac OS X 10_15_7) AppleWebKit/537.36 (KHTML, like Gecko) Chrome/99.0.4844.51 Safari/537.36" etag="ZrclV7Hn7iIq1rABAzxz" version="17.1.1" type="github">
  <diagram id="9ZpSaxzcpz4ULXaL1X-T" name="第 1 页">
    <mxGraphModel dx="1841" dy="614" grid="1" gridSize="10" guides="1" tooltips="1" connect="1" arrows="1" fold="1" page="1" pageScale="1" pageWidth="827" pageHeight="1169" background="none" math="0" shadow="0">
      <root>
        <mxCell id="0" />
        <mxCell id="1" parent="0" />
        <mxCell id="u6mgbEkUvCRB6LugAYpK-149" style="edgeStyle=orthogonalEdgeStyle;rounded=0;sketch=1;orthogonalLoop=1;jettySize=auto;html=1;exitX=0.5;exitY=1;exitDx=0;exitDy=0;fillColor=#d5e8d4;strokeColor=#82b366;fontColor=#19750F;" edge="1" parent="1" source="u6mgbEkUvCRB6LugAYpK-98" target="u6mgbEkUvCRB6LugAYpK-144">
          <mxGeometry relative="1" as="geometry" />
        </mxCell>
        <mxCell id="u6mgbEkUvCRB6LugAYpK-98" value="" style="rounded=1;whiteSpace=wrap;html=1;shadow=0;glass=0;dashed=1;sketch=1;fillStyle=auto;strokeColor=#82b366;strokeWidth=1;fillColor=none;" vertex="1" parent="1">
          <mxGeometry x="-60" y="350" width="770" height="230" as="geometry" />
        </mxCell>
        <mxCell id="u6mgbEkUvCRB6LugAYpK-74" value="" style="edgeStyle=orthogonalEdgeStyle;rounded=0;orthogonalLoop=1;jettySize=auto;html=1;" edge="1" parent="1" source="u6mgbEkUvCRB6LugAYpK-43" target="u6mgbEkUvCRB6LugAYpK-73">
          <mxGeometry relative="1" as="geometry" />
        </mxCell>
        <mxCell id="u6mgbEkUvCRB6LugAYpK-43" value="1. 注册解析函数&lt;br&gt;RegisterDecodeFuncs()" style="rounded=0;whiteSpace=wrap;html=1;fillStyle=auto;fillColor=#d5e8d4;gradientDirection=north;sketch=1;strokeColor=#82b366;" vertex="1" parent="1">
          <mxGeometry x="160" y="60" width="330" height="50" as="geometry" />
        </mxCell>
        <mxCell id="u6mgbEkUvCRB6LugAYpK-76" value="" style="edgeStyle=orthogonalEdgeStyle;rounded=0;orthogonalLoop=1;jettySize=auto;html=1;" edge="1" parent="1" source="u6mgbEkUvCRB6LugAYpK-73" target="u6mgbEkUvCRB6LugAYpK-75">
          <mxGeometry relative="1" as="geometry" />
        </mxCell>
        <mxCell id="u6mgbEkUvCRB6LugAYpK-73" value="2. DcodeFP回调&lt;br&gt;((global_proto_handler_table[hi_proto_id])-&amp;gt;decode)()" style="rounded=0;whiteSpace=wrap;html=1;fillStyle=auto;fillColor=#d5e8d4;gradientDirection=north;sketch=1;strokeColor=#82b366;" vertex="1" parent="1">
          <mxGeometry x="160" y="160" width="330" height="50" as="geometry" />
        </mxCell>
        <mxCell id="u6mgbEkUvCRB6LugAYpK-151" style="edgeStyle=orthogonalEdgeStyle;rounded=0;sketch=1;orthogonalLoop=1;jettySize=auto;html=1;exitX=0.5;exitY=1;exitDx=0;exitDy=0;fillColor=#d5e8d4;strokeColor=#82b366;" edge="1" parent="1" source="u6mgbEkUvCRB6LugAYpK-75" target="u6mgbEkUvCRB6LugAYpK-86">
          <mxGeometry relative="1" as="geometry" />
        </mxCell>
        <mxCell id="u6mgbEkUvCRB6LugAYpK-75" value="3. 传输层解析建流&lt;br&gt;global_proto_handler_table[high_proto_id]-&amp;gt;streaminit()" style="rounded=0;whiteSpace=wrap;html=1;fillStyle=auto;fillColor=#d5e8d4;gradientDirection=north;sketch=1;strokeColor=#82b366;" vertex="1" parent="1">
          <mxGeometry x="160" y="250" width="330" height="50" as="geometry" />
        </mxCell>
        <mxCell id="u6mgbEkUvCRB6LugAYpK-83" value="_ck_native_session_init()" style="rounded=0;whiteSpace=wrap;html=1;fillStyle=auto;fillColor=#d5e8d4;gradientDirection=north;sketch=1;strokeColor=#82b366;fontColor=#19750F;" vertex="1" parent="1">
          <mxGeometry x="150" y="510" width="170" height="50" as="geometry" />
        </mxCell>
        <mxCell id="u6mgbEkUvCRB6LugAYpK-84" value="_ck_http_session_init()" style="rounded=0;whiteSpace=wrap;html=1;fillStyle=auto;fillColor=#d5e8d4;gradientDirection=north;sketch=1;strokeColor=#82b366;" vertex="1" parent="1">
          <mxGeometry x="-45" y="510" width="170" height="50" as="geometry" />
        </mxCell>
        <mxCell id="u6mgbEkUvCRB6LugAYpK-85" value="_ck_native_session_init()" style="rounded=0;whiteSpace=wrap;html=1;fillStyle=auto;fillColor=#d5e8d4;gradientDirection=north;sketch=1;strokeColor=#82b366;fontColor=#19750F;" vertex="1" parent="1">
          <mxGeometry x="335" y="510" width="170" height="50" as="geometry" />
        </mxCell>
        <mxCell id="u6mgbEkUvCRB6LugAYpK-88" style="edgeStyle=orthogonalEdgeStyle;orthogonalLoop=1;jettySize=auto;html=1;exitX=0.5;exitY=1;exitDx=0;exitDy=0;entryX=0.5;entryY=0;entryDx=0;entryDy=0;sketch=1;fillColor=#d5e8d4;strokeColor=#82b366;curved=1;fontColor=#19750F;" edge="1" parent="1" source="u6mgbEkUvCRB6LugAYpK-86" target="u6mgbEkUvCRB6LugAYpK-84">
          <mxGeometry relative="1" as="geometry">
            <mxPoint x="200" y="440" as="sourcePoint" />
            <Array as="points">
              <mxPoint x="325" y="450" />
              <mxPoint x="40" y="450" />
            </Array>
          </mxGeometry>
        </mxCell>
        <mxCell id="u6mgbEkUvCRB6LugAYpK-126" value="PROTO_ID_CK_HTTP" style="edgeLabel;html=1;align=center;verticalAlign=middle;resizable=0;points=[];fontColor=#19750F;" vertex="1" connectable="0" parent="u6mgbEkUvCRB6LugAYpK-88">
          <mxGeometry x="0.0845" y="2" relative="1" as="geometry">
            <mxPoint as="offset" />
          </mxGeometry>
        </mxCell>
        <mxCell id="u6mgbEkUvCRB6LugAYpK-89" style="edgeStyle=orthogonalEdgeStyle;orthogonalLoop=1;jettySize=auto;html=1;exitX=0.5;exitY=1;exitDx=0;exitDy=0;entryX=0.5;entryY=0;entryDx=0;entryDy=0;sketch=1;fillColor=#d5e8d4;strokeColor=#82b366;curved=1;fontColor=#19750F;" edge="1" parent="1" source="u6mgbEkUvCRB6LugAYpK-86" target="u6mgbEkUvCRB6LugAYpK-83">
          <mxGeometry relative="1" as="geometry">
            <mxPoint x="200" y="440" as="sourcePoint" />
            <Array as="points">
              <mxPoint x="325" y="460" />
              <mxPoint x="235" y="460" />
            </Array>
          </mxGeometry>
        </mxCell>
        <mxCell id="u6mgbEkUvCRB6LugAYpK-127" value="PROTO_ID_CK_NATIVE" style="edgeLabel;html=1;align=center;verticalAlign=middle;resizable=0;points=[];fontColor=#19750F;" vertex="1" connectable="0" parent="u6mgbEkUvCRB6LugAYpK-89">
          <mxGeometry x="0.5375" y="10" relative="1" as="geometry">
            <mxPoint as="offset" />
          </mxGeometry>
        </mxCell>
        <mxCell id="u6mgbEkUvCRB6LugAYpK-90" style="edgeStyle=orthogonalEdgeStyle;orthogonalLoop=1;jettySize=auto;html=1;exitX=0.5;exitY=1;exitDx=0;exitDy=0;entryX=0.5;entryY=0;entryDx=0;entryDy=0;sketch=1;fillColor=#d5e8d4;strokeColor=#82b366;curved=1;fontColor=#19750F;" edge="1" parent="1" source="u6mgbEkUvCRB6LugAYpK-86" target="u6mgbEkUvCRB6LugAYpK-85">
          <mxGeometry relative="1" as="geometry">
            <mxPoint x="200" y="440" as="sourcePoint" />
          </mxGeometry>
        </mxCell>
        <mxCell id="u6mgbEkUvCRB6LugAYpK-130" value="PROTO_ID_CK_GRPC" style="edgeLabel;html=1;align=center;verticalAlign=middle;resizable=0;points=[];fontColor=#19750F;" vertex="1" connectable="0" parent="u6mgbEkUvCRB6LugAYpK-90">
          <mxGeometry x="0.0364" relative="1" as="geometry">
            <mxPoint x="14" y="5" as="offset" />
          </mxGeometry>
        </mxCell>
        <mxCell id="u6mgbEkUvCRB6LugAYpK-94" style="edgeStyle=orthogonalEdgeStyle;curved=1;sketch=1;orthogonalLoop=1;jettySize=auto;html=1;fillColor=#d5e8d4;strokeColor=#82b366;exitX=0.5;exitY=1;exitDx=0;exitDy=0;fontColor=#19750F;" edge="1" parent="1" source="u6mgbEkUvCRB6LugAYpK-86" target="u6mgbEkUvCRB6LugAYpK-91">
          <mxGeometry relative="1" as="geometry">
            <Array as="points">
              <mxPoint x="325" y="460" />
              <mxPoint x="610" y="460" />
            </Array>
          </mxGeometry>
        </mxCell>
        <mxCell id="u6mgbEkUvCRB6LugAYpK-131" value="PROTO_ID_CK_MYSQL" style="edgeLabel;html=1;align=center;verticalAlign=middle;resizable=0;points=[];fontColor=#19750F;" vertex="1" connectable="0" parent="u6mgbEkUvCRB6LugAYpK-94">
          <mxGeometry x="0.4056" y="-10" relative="1" as="geometry">
            <mxPoint x="1" as="offset" />
          </mxGeometry>
        </mxCell>
        <mxCell id="u6mgbEkUvCRB6LugAYpK-86" value="&lt;span style=&quot;font-family: monospace; font-size: 0px;&quot;&gt;4&lt;/span&gt;" style="rhombus;whiteSpace=wrap;html=1;fillStyle=auto;strokeColor=#82b366;fillColor=#d5e8d4;sketch=1;fontColor=#19750F;" vertex="1" parent="1">
          <mxGeometry x="217.5" y="370" width="215" height="70" as="geometry" />
        </mxCell>
        <mxCell id="u6mgbEkUvCRB6LugAYpK-87" value="proto_id？" style="text;html=1;strokeColor=none;fillColor=none;align=center;verticalAlign=middle;whiteSpace=wrap;rounded=0;fillStyle=auto;sketch=1;fontColor=#19750F;" vertex="1" parent="1">
          <mxGeometry x="295" y="390" width="60" height="30" as="geometry" />
        </mxCell>
        <mxCell id="u6mgbEkUvCRB6LugAYpK-91" value="_ck_mysql_session_init()" style="rounded=0;whiteSpace=wrap;html=1;fillStyle=auto;fillColor=#d5e8d4;gradientDirection=north;sketch=1;strokeColor=#82b366;fontColor=#19750F;" vertex="1" parent="1">
          <mxGeometry x="525" y="510" width="170" height="50" as="geometry" />
        </mxCell>
        <mxCell id="u6mgbEkUvCRB6LugAYpK-97" value="4. 初始话会话" style="text;html=1;strokeColor=#82b366;fillColor=#d5e8d4;align=center;verticalAlign=middle;whiteSpace=wrap;rounded=0;shadow=0;glass=0;dashed=1;sketch=1;fillStyle=auto;" vertex="1" parent="1">
          <mxGeometry x="570" y="350" width="110" height="30" as="geometry" />
        </mxCell>
        <mxCell id="u6mgbEkUvCRB6LugAYpK-132" value="" style="rounded=1;whiteSpace=wrap;html=1;shadow=0;glass=0;dashed=1;sketch=1;fillStyle=auto;strokeColor=#82b366;strokeWidth=1;fillColor=none;" vertex="1" parent="1">
          <mxGeometry x="-60" y="650" width="770" height="230" as="geometry" />
        </mxCell>
        <mxCell id="u6mgbEkUvCRB6LugAYpK-133" value="_ck_native_session_init()" style="rounded=0;whiteSpace=wrap;html=1;fillStyle=auto;fillColor=#d5e8d4;gradientDirection=north;sketch=1;strokeColor=#82b366;" vertex="1" parent="1">
          <mxGeometry x="150" y="810" width="170" height="50" as="geometry" />
        </mxCell>
        <mxCell id="u6mgbEkUvCRB6LugAYpK-134" value="_ck_http_session_init()" style="rounded=0;whiteSpace=wrap;html=1;fillStyle=auto;fillColor=#d5e8d4;gradientDirection=north;sketch=1;strokeColor=#82b366;" vertex="1" parent="1">
          <mxGeometry x="-45" y="810" width="170" height="50" as="geometry" />
        </mxCell>
        <mxCell id="u6mgbEkUvCRB6LugAYpK-135" value="_ck_native_session_init()" style="rounded=0;whiteSpace=wrap;html=1;fillStyle=auto;fillColor=#d5e8d4;gradientDirection=north;sketch=1;strokeColor=#82b366;" vertex="1" parent="1">
          <mxGeometry x="335" y="810" width="170" height="50" as="geometry" />
        </mxCell>
        <mxCell id="u6mgbEkUvCRB6LugAYpK-136" style="edgeStyle=orthogonalEdgeStyle;orthogonalLoop=1;jettySize=auto;html=1;exitX=0.5;exitY=1;exitDx=0;exitDy=0;entryX=0.5;entryY=0;entryDx=0;entryDy=0;sketch=1;fillColor=#d5e8d4;strokeColor=#82b366;curved=1;fontColor=#19750F;" edge="1" parent="1" source="u6mgbEkUvCRB6LugAYpK-144" target="u6mgbEkUvCRB6LugAYpK-134">
          <mxGeometry relative="1" as="geometry">
            <mxPoint x="200" y="740" as="sourcePoint" />
            <Array as="points">
              <mxPoint x="325" y="750" />
              <mxPoint x="40" y="750" />
            </Array>
          </mxGeometry>
        </mxCell>
        <mxCell id="u6mgbEkUvCRB6LugAYpK-137" value="PROTO_ID_CK_HTTP" style="edgeLabel;html=1;align=center;verticalAlign=middle;resizable=0;points=[];fontColor=#19750F;" vertex="1" connectable="0" parent="u6mgbEkUvCRB6LugAYpK-136">
          <mxGeometry x="0.0845" y="2" relative="1" as="geometry">
            <mxPoint as="offset" />
          </mxGeometry>
        </mxCell>
        <mxCell id="u6mgbEkUvCRB6LugAYpK-138" style="edgeStyle=orthogonalEdgeStyle;orthogonalLoop=1;jettySize=auto;html=1;exitX=0.5;exitY=1;exitDx=0;exitDy=0;entryX=0.5;entryY=0;entryDx=0;entryDy=0;sketch=1;fillColor=#d5e8d4;strokeColor=#82b366;curved=1;fontColor=#19750F;" edge="1" parent="1" source="u6mgbEkUvCRB6LugAYpK-144" target="u6mgbEkUvCRB6LugAYpK-133">
          <mxGeometry relative="1" as="geometry">
            <mxPoint x="200" y="740" as="sourcePoint" />
            <Array as="points">
              <mxPoint x="325" y="760" />
              <mxPoint x="235" y="760" />
            </Array>
          </mxGeometry>
        </mxCell>
        <mxCell id="u6mgbEkUvCRB6LugAYpK-139" value="PROTO_ID_CK_NATIVE" style="edgeLabel;html=1;align=center;verticalAlign=middle;resizable=0;points=[];fontColor=#19750F;" vertex="1" connectable="0" parent="u6mgbEkUvCRB6LugAYpK-138">
          <mxGeometry x="0.5375" y="10" relative="1" as="geometry">
            <mxPoint as="offset" />
          </mxGeometry>
        </mxCell>
        <mxCell id="u6mgbEkUvCRB6LugAYpK-140" style="edgeStyle=orthogonalEdgeStyle;orthogonalLoop=1;jettySize=auto;html=1;exitX=0.5;exitY=1;exitDx=0;exitDy=0;entryX=0.5;entryY=0;entryDx=0;entryDy=0;sketch=1;fillColor=#d5e8d4;strokeColor=#82b366;curved=1;fontColor=#19750F;" edge="1" parent="1" source="u6mgbEkUvCRB6LugAYpK-144" target="u6mgbEkUvCRB6LugAYpK-135">
          <mxGeometry relative="1" as="geometry">
            <mxPoint x="200" y="740" as="sourcePoint" />
          </mxGeometry>
        </mxCell>
        <mxCell id="u6mgbEkUvCRB6LugAYpK-141" value="PROTO_ID_CK_GRPC" style="edgeLabel;html=1;align=center;verticalAlign=middle;resizable=0;points=[];fontColor=#19750F;" vertex="1" connectable="0" parent="u6mgbEkUvCRB6LugAYpK-140">
          <mxGeometry x="0.0364" relative="1" as="geometry">
            <mxPoint x="14" y="5" as="offset" />
          </mxGeometry>
        </mxCell>
        <mxCell id="u6mgbEkUvCRB6LugAYpK-142" style="edgeStyle=orthogonalEdgeStyle;curved=1;sketch=1;orthogonalLoop=1;jettySize=auto;html=1;fillColor=#d5e8d4;strokeColor=#82b366;exitX=0.5;exitY=1;exitDx=0;exitDy=0;fontColor=#19750F;" edge="1" parent="1" source="u6mgbEkUvCRB6LugAYpK-144" target="u6mgbEkUvCRB6LugAYpK-146">
          <mxGeometry relative="1" as="geometry">
            <Array as="points">
              <mxPoint x="325" y="760" />
              <mxPoint x="610" y="760" />
            </Array>
          </mxGeometry>
        </mxCell>
        <mxCell id="u6mgbEkUvCRB6LugAYpK-143" value="PROTO_ID_CK_MYSQL" style="edgeLabel;html=1;align=center;verticalAlign=middle;resizable=0;points=[];fontColor=#19750F;" vertex="1" connectable="0" parent="u6mgbEkUvCRB6LugAYpK-142">
          <mxGeometry x="0.4056" y="-10" relative="1" as="geometry">
            <mxPoint x="1" as="offset" />
          </mxGeometry>
        </mxCell>
        <mxCell id="u6mgbEkUvCRB6LugAYpK-144" value="&lt;span style=&quot;font-family: monospace; font-size: 0px;&quot;&gt;4&lt;/span&gt;" style="rhombus;whiteSpace=wrap;html=1;fillStyle=auto;strokeColor=#82b366;fillColor=#d5e8d4;sketch=1;fontColor=#19750F;" vertex="1" parent="1">
          <mxGeometry x="217.5" y="670" width="215" height="70" as="geometry" />
        </mxCell>
        <mxCell id="u6mgbEkUvCRB6LugAYpK-145" value="proto_id？" style="text;html=1;strokeColor=none;fillColor=none;align=center;verticalAlign=middle;whiteSpace=wrap;rounded=0;fillStyle=auto;sketch=1;fontColor=#19750F;" vertex="1" parent="1">
          <mxGeometry x="295" y="690" width="60" height="30" as="geometry" />
        </mxCell>
        <mxCell id="u6mgbEkUvCRB6LugAYpK-146" value="_ck_mysql_session_init()" style="rounded=0;whiteSpace=wrap;html=1;fillStyle=auto;fillColor=#d5e8d4;gradientDirection=north;sketch=1;strokeColor=#82b366;" vertex="1" parent="1">
          <mxGeometry x="525" y="810" width="170" height="50" as="geometry" />
        </mxCell>
        <mxCell id="u6mgbEkUvCRB6LugAYpK-147" value="5. 应用层协议解析" style="text;html=1;strokeColor=none;fillColor=none;align=center;verticalAlign=middle;whiteSpace=wrap;rounded=0;shadow=0;glass=0;dashed=1;sketch=1;fillStyle=auto;fontColor=#19750F;" vertex="1" parent="1">
          <mxGeometry x="570" y="650" width="110" height="30" as="geometry" />
        </mxCell>
      </root>
    </mxGraphModel>
  </diagram>
</mxfile>
